<?xml version="1.0" standalone="no"?>
<!DOCTYPE svg PUBLIC "-//W3C//DTD SVG 20010904//EN"
 "http://www.w3.org/TR/2001/REC-SVG-20010904/DTD/svg10.dtd">
<svg version="1.0" xmlns="http://www.w3.org/2000/svg"
 width="273.000000pt" height="272.000000pt" viewBox="0 0 273.000000 272.000000"
 preserveAspectRatio="xMidYMid meet">

<g transform="translate(0.000000,272.000000) scale(0.100000,-0.100000)"
fill="#000000" stroke="none">
<path d="M1163 2386 c-305 -59 -513 -243 -593 -526 -49 -177 -53 -228 -57
-862 l-5 -598 180 0 180 0 5 583 c4 542 5 588 24 674 51 226 175 364 364 404
78 17 214 7 274 -20 173 -77 242 -308 150 -497 -65 -133 -283 -264 -497 -299
l-38 -6 0 -138 0 -139 48 -6 c218 -31 436 -181 522 -361 26 -55 36 -86 54
-167 l6 -28 200 0 c139 0 200 3 200 11 0 22 -60 190 -86 241 -85 167 -219 308
-391 412 -35 21 -63 39 -63 40 0 2 30 21 67 42 39 22 105 76 154 125 72 72 94
102 133 180 49 101 71 175 81 280 l6 67 100 87 c55 47 103 93 106 101 3 9 1
25 -5 38 -9 19 -31 28 -154 57 -137 32 -144 35 -178 73 -104 118 -193 172
-348 212 -121 32 -329 41 -439 20z"/>
<path d="M1374 1910 c-31 -12 -72 -66 -80 -105 -9 -47 11 -99 52 -135 65 -57
181 -34 218 44 47 100 -18 207 -125 205 -24 0 -53 -4 -65 -9z"/>
</g>
</svg>
